<?xml version="1.0" encoding="UTF-8" standalone="no"?>
<!DOCTYPE svg PUBLIC "-//W3C//DTD SVG 1.1//EN"
 "http://www.w3.org/Graphics/SVG/1.1/DTD/svg11.dtd">
<!-- Generated by graphviz version 2.38.0 (20140413.2041)
 -->
<!-- Title: models_diagram Pages: 1 -->
<svg width="417pt" height="551pt"
 viewBox="0.00 0.00 416.57 551.00" xmlns="http://www.w3.org/2000/svg" xmlns:xlink="http://www.w3.org/1999/xlink">
<g id="graph0" class="graph" transform="scale(1 1) rotate(0) translate(4 547)">
<title>models_diagram</title>
<polygon fill="white" stroke="none" points="-4,4 -4,-547 412.573,-547 412.573,4 -4,4"/>
<!-- Article -->
<g id="node1" class="node"><title>Article</title>
<path fill="none" stroke="black" d="M12,-158.5C12,-158.5 136.59,-158.5 136.59,-158.5 142.59,-158.5 148.59,-164.5 148.59,-170.5 148.59,-170.5 148.59,-316.5 148.59,-316.5 148.59,-322.5 142.59,-328.5 136.59,-328.5 136.59,-328.5 12,-328.5 12,-328.5 6,-328.5 0,-322.5 0,-316.5 0,-316.5 0,-170.5 0,-170.5 0,-164.5 6,-158.5 12,-158.5"/>
<text text-anchor="middle" x="74.2949" y="-313.3" font-family="Times,serif" font-size="14.00">Article</text>
<polyline fill="none" stroke="black" points="0,-306.5 148.59,-306.5 "/>
<text text-anchor="start" x="8" y="-291.3" font-family="Times,serif" font-size="14.00">id :integer</text>
<text text-anchor="start" x="8" y="-277.3" font-family="Times,serif" font-size="14.00">title :string</text>
<text text-anchor="start" x="8" y="-263.3" font-family="Times,serif" font-size="14.00">summary :text</text>
<text text-anchor="start" x="8" y="-249.3" font-family="Times,serif" font-size="14.00">url :string</text>
<text text-anchor="start" x="8" y="-235.3" font-family="Times,serif" font-size="14.00">entry_id :string</text>
<text text-anchor="start" x="8" y="-221.3" font-family="Times,serif" font-size="14.00">published :datetime</text>
<text text-anchor="start" x="8" y="-207.3" font-family="Times,serif" font-size="14.00">image :text</text>
<text text-anchor="start" x="8" y="-193.3" font-family="Times,serif" font-size="14.00">created_at :datetime</text>
<text text-anchor="start" x="8" y="-179.3" font-family="Times,serif" font-size="14.00">updated_at :datetime</text>
<text text-anchor="start" x="8" y="-165.3" font-family="Times,serif" font-size="14.00">subscription_id :integer</text>
</g>
<!-- Subscription -->
<g id="node2" class="node"><title>Subscription</title>
<path fill="none" stroke="black" d="M117.121,-414.5C117.121,-414.5 235.469,-414.5 235.469,-414.5 241.469,-414.5 247.469,-420.5 247.469,-426.5 247.469,-426.5 247.469,-530.5 247.469,-530.5 247.469,-536.5 241.469,-542.5 235.469,-542.5 235.469,-542.5 117.121,-542.5 117.121,-542.5 111.121,-542.5 105.121,-536.5 105.121,-530.5 105.121,-530.5 105.121,-426.5 105.121,-426.5 105.121,-420.5 111.121,-414.5 117.121,-414.5"/>
<text text-anchor="middle" x="176.295" y="-527.3" font-family="Times,serif" font-size="14.00">Subscription</text>
<polyline fill="none" stroke="black" points="105.121,-520.5 247.469,-520.5 "/>
<text text-anchor="start" x="113.121" y="-505.3" font-family="Times,serif" font-size="14.00">id :integer</text>
<text text-anchor="start" x="113.121" y="-491.3" font-family="Times,serif" font-size="14.00">url :string</text>
<text text-anchor="start" x="113.121" y="-477.3" font-family="Times,serif" font-size="14.00">title :string</text>
<text text-anchor="start" x="113.121" y="-463.3" font-family="Times,serif" font-size="14.00">category :string</text>
<text text-anchor="start" x="113.121" y="-449.3" font-family="Times,serif" font-size="14.00">last_updated :datetime</text>
<text text-anchor="start" x="113.121" y="-435.3" font-family="Times,serif" font-size="14.00">created_at :datetime</text>
<text text-anchor="start" x="113.121" y="-421.3" font-family="Times,serif" font-size="14.00">updated_at :datetime</text>
</g>
<!-- Subscription&#45;&gt;Article -->
<g id="edge3" class="edge"><title>Subscription&#45;&gt;Article</title>
<path fill="none" stroke="#8b8359" d="M145.389,-406.9C135.895,-385.213 125.295,-361 115.238,-338.028"/>
<ellipse fill="none" stroke="#8b8359" cx="147.088" cy="-410.783" rx="4.00002" ry="4.00002"/>
<polygon fill="#8b8359" stroke="#8b8359" points="115.127,-337.774 115.239,-326.809 113.122,-333.194 111.117,-328.613 111.117,-328.613 111.117,-328.613 113.122,-333.194 106.995,-330.418 115.127,-337.774 115.127,-337.774"/>
</g>
<!-- SubscriptionsUser -->
<g id="node3" class="node"><title>SubscriptionsUser</title>
<path fill="none" stroke="black" d="M179,-0.5C179,-0.5 303.59,-0.5 303.59,-0.5 309.59,-0.5 315.59,-6.5 315.59,-12.5 315.59,-12.5 315.59,-60.5 315.59,-60.5 315.59,-66.5 309.59,-72.5 303.59,-72.5 303.59,-72.5 179,-72.5 179,-72.5 173,-72.5 167,-66.5 167,-60.5 167,-60.5 167,-12.5 167,-12.5 167,-6.5 173,-0.5 179,-0.5"/>
<text text-anchor="middle" x="241.295" y="-57.3" font-family="Times,serif" font-size="14.00">SubscriptionsUser</text>
<polyline fill="none" stroke="black" points="167,-50.5 315.59,-50.5 "/>
<text text-anchor="start" x="175" y="-35.3" font-family="Times,serif" font-size="14.00">id :integer</text>
<text text-anchor="start" x="175" y="-21.3" font-family="Times,serif" font-size="14.00">subscription_id :integer</text>
<text text-anchor="start" x="175" y="-7.3" font-family="Times,serif" font-size="14.00">user_id :integer</text>
</g>
<!-- Subscription&#45;&gt;SubscriptionsUser -->
<g id="edge1" class="edge"><title>Subscription&#45;&gt;SubscriptionsUser</title>
<path fill="none" stroke="#fbb277" d="M169.326,-406.37C164.333,-330.695 163.27,-208.426 195.295,-109 198.349,-99.5166 202.991,-90.0633 208.171,-81.2836"/>
<ellipse fill="none" stroke="#fbb277" cx="169.61" cy="-410.463" rx="4" ry="4"/>
<polygon fill="#fbb277" stroke="#fbb277" points="208.2,-81.2376 217.309,-75.1334 210.845,-76.9949 213.491,-72.7523 213.491,-72.7523 213.491,-72.7523 210.845,-76.9949 209.673,-70.3711 208.2,-81.2376 208.2,-81.2376"/>
</g>
<!-- User -->
<g id="node4" class="node"><title>User</title>
<path fill="none" stroke="black" d="M216.017,-109.5C216.017,-109.5 396.573,-109.5 396.573,-109.5 402.573,-109.5 408.573,-115.5 408.573,-121.5 408.573,-121.5 408.573,-365.5 408.573,-365.5 408.573,-371.5 402.573,-377.5 396.573,-377.5 396.573,-377.5 216.017,-377.5 216.017,-377.5 210.017,-377.5 204.017,-371.5 204.017,-365.5 204.017,-365.5 204.017,-121.5 204.017,-121.5 204.017,-115.5 210.017,-109.5 216.017,-109.5"/>
<text text-anchor="middle" x="306.295" y="-362.3" font-family="Times,serif" font-size="14.00">User</text>
<polyline fill="none" stroke="black" points="204.017,-355.5 408.573,-355.5 "/>
<text text-anchor="start" x="212.017" y="-340.3" font-family="Times,serif" font-size="14.00">id :integer</text>
<text text-anchor="start" x="212.017" y="-326.3" font-family="Times,serif" font-size="14.00">email :string</text>
<text text-anchor="start" x="212.017" y="-312.3" font-family="Times,serif" font-size="14.00">encrypted_password :string</text>
<text text-anchor="start" x="212.017" y="-298.3" font-family="Times,serif" font-size="14.00">reset_password_token :string</text>
<text text-anchor="start" x="212.017" y="-284.3" font-family="Times,serif" font-size="14.00">reset_password_sent_at :datetime</text>
<text text-anchor="start" x="212.017" y="-270.3" font-family="Times,serif" font-size="14.00">remember_created_at :datetime</text>
<text text-anchor="start" x="212.017" y="-256.3" font-family="Times,serif" font-size="14.00">sign_in_count :integer</text>
<text text-anchor="start" x="212.017" y="-242.3" font-family="Times,serif" font-size="14.00">current_sign_in_at :datetime</text>
<text text-anchor="start" x="212.017" y="-228.3" font-family="Times,serif" font-size="14.00">last_sign_in_at :datetime</text>
<text text-anchor="start" x="212.017" y="-214.3" font-family="Times,serif" font-size="14.00">current_sign_in_ip :string</text>
<text text-anchor="start" x="212.017" y="-200.3" font-family="Times,serif" font-size="14.00">last_sign_in_ip :string</text>
<text text-anchor="start" x="212.017" y="-186.3" font-family="Times,serif" font-size="14.00">confirmation_token :string</text>
<text text-anchor="start" x="212.017" y="-172.3" font-family="Times,serif" font-size="14.00">confirmed_at :datetime</text>
<text text-anchor="start" x="212.017" y="-158.3" font-family="Times,serif" font-size="14.00">confirmation_sent_at :datetime</text>
<text text-anchor="start" x="212.017" y="-144.3" font-family="Times,serif" font-size="14.00">unconfirmed_email :string</text>
<text text-anchor="start" x="212.017" y="-130.3" font-family="Times,serif" font-size="14.00">created_at :datetime</text>
<text text-anchor="start" x="212.017" y="-116.3" font-family="Times,serif" font-size="14.00">updated_at :datetime</text>
</g>
<!-- Subscription&#45;&gt;User -->
<g id="edge2" class="edge"><title>Subscription&#45;&gt;User</title>
<path fill="none" stroke="#c80aef" d="M216.414,-405.595C219.866,-399.406 223.429,-393.02 227.055,-386.523"/>
<polygon fill="#c80aef" stroke="#c80aef" points="216.347,-405.714 207.545,-412.254 213.911,-410.08 211.475,-414.447 211.475,-414.447 211.475,-414.447 213.911,-410.08 215.405,-416.639 216.347,-405.714 216.347,-405.714"/>
<polygon fill="#c80aef" stroke="#c80aef" points="227.16,-386.334 235.962,-379.794 229.596,-381.968 232.032,-377.602 232.032,-377.602 232.032,-377.602 229.596,-381.968 228.102,-375.409 227.16,-386.334 227.16,-386.334"/>
</g>
<!-- User&#45;&gt;SubscriptionsUser -->
<g id="edge4" class="edge"><title>User&#45;&gt;SubscriptionsUser</title>
<path fill="none" stroke="#816ba1" d="M261.67,-101.759C259.543,-95.0505 257.496,-88.5968 255.575,-82.5387"/>
<ellipse fill="none" stroke="#816ba1" cx="262.911" cy="-105.674" rx="4.00001" ry="4.00001"/>
<polygon fill="#816ba1" stroke="#816ba1" points="255.492,-82.274 256.759,-71.3815 253.98,-77.5078 252.469,-72.7417 252.469,-72.7417 252.469,-72.7417 253.98,-77.5078 248.18,-74.1018 255.492,-82.274 255.492,-82.274"/>
</g>
</g>
</svg>
